<mxfile host="app.diagrams.net" agent="Mozilla/5.0 (Windows NT 10.0; Win64; x64) AppleWebKit/537.36 (KHTML, like Gecko) Chrome/131.0.0.0 Safari/537.36" version="25.0.3">
  <diagram id="C5RBs43oDa-KdzZeNtuy" name="Page-1">
    <mxGraphModel dx="1050" dy="522" grid="1" gridSize="10" guides="1" tooltips="1" connect="1" arrows="1" fold="1" page="1" pageScale="1" pageWidth="827" pageHeight="1169" math="0" shadow="0">
      <root>
        <mxCell id="WIyWlLk6GJQsqaUBKTNV-0" />
        <mxCell id="WIyWlLk6GJQsqaUBKTNV-1" parent="WIyWlLk6GJQsqaUBKTNV-0" />
        <mxCell id="7VZOe4bMkCDw_l6M71J5-0" value="" style="ellipse;html=1;shape=startState;fillColor=#000000;strokeColor=#ff0000;" parent="WIyWlLk6GJQsqaUBKTNV-1" vertex="1">
          <mxGeometry x="399" y="60" width="30" height="30" as="geometry" />
        </mxCell>
        <mxCell id="7VZOe4bMkCDw_l6M71J5-1" value="" style="edgeStyle=orthogonalEdgeStyle;html=1;verticalAlign=bottom;endArrow=open;endSize=8;strokeColor=#ff0000;rounded=0;" parent="WIyWlLk6GJQsqaUBKTNV-1" source="7VZOe4bMkCDw_l6M71J5-0" edge="1">
          <mxGeometry relative="1" as="geometry">
            <mxPoint x="414" y="150" as="targetPoint" />
          </mxGeometry>
        </mxCell>
        <mxCell id="7VZOe4bMkCDw_l6M71J5-4" value="Page is available" style="rounded=1;whiteSpace=wrap;html=1;arcSize=40;fontColor=#000000;fillColor=#ffffc0;strokeColor=#ff0000;" parent="WIyWlLk6GJQsqaUBKTNV-1" vertex="1">
          <mxGeometry x="354" y="150" width="120" height="40" as="geometry" />
        </mxCell>
        <mxCell id="7VZOe4bMkCDw_l6M71J5-5" value="" style="edgeStyle=orthogonalEdgeStyle;html=1;verticalAlign=bottom;endArrow=open;endSize=8;strokeColor=#ff0000;rounded=0;" parent="WIyWlLk6GJQsqaUBKTNV-1" source="7VZOe4bMkCDw_l6M71J5-4" edge="1">
          <mxGeometry relative="1" as="geometry">
            <mxPoint x="414" y="250" as="targetPoint" />
          </mxGeometry>
        </mxCell>
        <mxCell id="7VZOe4bMkCDw_l6M71J5-6" value="" style="rhombus;whiteSpace=wrap;html=1;fontColor=#000000;fillColor=#ffffc0;strokeColor=#ff0000;" parent="WIyWlLk6GJQsqaUBKTNV-1" vertex="1">
          <mxGeometry x="374" y="250" width="80" height="40" as="geometry" />
        </mxCell>
        <mxCell id="7VZOe4bMkCDw_l6M71J5-7" value="no" style="edgeStyle=orthogonalEdgeStyle;html=1;align=left;verticalAlign=bottom;endArrow=open;endSize=8;strokeColor=#ff0000;rounded=0;" parent="WIyWlLk6GJQsqaUBKTNV-1" source="7VZOe4bMkCDw_l6M71J5-6" edge="1">
          <mxGeometry x="-1" relative="1" as="geometry">
            <mxPoint x="600" y="320" as="targetPoint" />
          </mxGeometry>
        </mxCell>
        <mxCell id="7VZOe4bMkCDw_l6M71J5-9" value="" style="edgeStyle=orthogonalEdgeStyle;html=1;align=left;verticalAlign=bottom;endArrow=open;endSize=8;strokeColor=#ff0000;rounded=0;exitX=0.5;exitY=1;exitDx=0;exitDy=0;" parent="WIyWlLk6GJQsqaUBKTNV-1" source="7VZOe4bMkCDw_l6M71J5-6" edge="1">
          <mxGeometry x="-1" relative="1" as="geometry">
            <mxPoint x="414" y="390" as="targetPoint" />
            <mxPoint x="454.07" y="379.96" as="sourcePoint" />
            <Array as="points">
              <mxPoint x="414" y="350" />
              <mxPoint x="414" y="350" />
            </Array>
          </mxGeometry>
        </mxCell>
        <mxCell id="7VZOe4bMkCDw_l6M71J5-12" value="yes" style="text;html=1;align=center;verticalAlign=middle;resizable=0;points=[];autosize=1;strokeColor=none;fillColor=none;" parent="WIyWlLk6GJQsqaUBKTNV-1" vertex="1">
          <mxGeometry x="410" y="308" width="40" height="30" as="geometry" />
        </mxCell>
        <mxCell id="7VZOe4bMkCDw_l6M71J5-16" value="Error" style="rounded=1;whiteSpace=wrap;html=1;arcSize=40;fontColor=#000000;fillColor=#ffffc0;strokeColor=#ff0000;" parent="WIyWlLk6GJQsqaUBKTNV-1" vertex="1">
          <mxGeometry x="540" y="320" width="120" height="40" as="geometry" />
        </mxCell>
        <mxCell id="7VZOe4bMkCDw_l6M71J5-17" value="" style="edgeStyle=orthogonalEdgeStyle;html=1;verticalAlign=bottom;endArrow=open;endSize=8;strokeColor=#ff0000;rounded=0;" parent="WIyWlLk6GJQsqaUBKTNV-1" source="7VZOe4bMkCDw_l6M71J5-16" edge="1">
          <mxGeometry relative="1" as="geometry">
            <mxPoint x="600" y="430" as="targetPoint" />
            <Array as="points">
              <mxPoint x="600" y="420" />
            </Array>
          </mxGeometry>
        </mxCell>
        <mxCell id="7VZOe4bMkCDw_l6M71J5-18" value="" style="ellipse;html=1;shape=endState;fillColor=#000000;strokeColor=#ff0000;" parent="WIyWlLk6GJQsqaUBKTNV-1" vertex="1">
          <mxGeometry x="585" y="430" width="30" height="30" as="geometry" />
        </mxCell>
        <mxCell id="7VZOe4bMkCDw_l6M71J5-19" value="Enter user detail" style="rounded=1;whiteSpace=wrap;html=1;arcSize=40;fontColor=#000000;fillColor=#ffffc0;strokeColor=#ff0000;" parent="WIyWlLk6GJQsqaUBKTNV-1" vertex="1">
          <mxGeometry x="354" y="390" width="120" height="40" as="geometry" />
        </mxCell>
        <mxCell id="7VZOe4bMkCDw_l6M71J5-20" value="" style="edgeStyle=orthogonalEdgeStyle;html=1;verticalAlign=bottom;endArrow=open;endSize=8;strokeColor=#ff0000;rounded=0;" parent="WIyWlLk6GJQsqaUBKTNV-1" source="7VZOe4bMkCDw_l6M71J5-19" edge="1">
          <mxGeometry relative="1" as="geometry">
            <mxPoint x="414" y="490" as="targetPoint" />
          </mxGeometry>
        </mxCell>
        <mxCell id="7VZOe4bMkCDw_l6M71J5-21" value="Is User detail is right or not" style="rounded=1;whiteSpace=wrap;html=1;arcSize=40;fontColor=#000000;fillColor=#ffffc0;strokeColor=#ff0000;" parent="WIyWlLk6GJQsqaUBKTNV-1" vertex="1">
          <mxGeometry x="354" y="490" width="120" height="40" as="geometry" />
        </mxCell>
        <mxCell id="7VZOe4bMkCDw_l6M71J5-22" value="" style="edgeStyle=orthogonalEdgeStyle;html=1;verticalAlign=bottom;endArrow=open;endSize=8;strokeColor=#ff0000;rounded=0;" parent="WIyWlLk6GJQsqaUBKTNV-1" source="7VZOe4bMkCDw_l6M71J5-21" edge="1">
          <mxGeometry relative="1" as="geometry">
            <mxPoint x="414" y="590" as="targetPoint" />
          </mxGeometry>
        </mxCell>
        <mxCell id="7VZOe4bMkCDw_l6M71J5-23" value="" style="rhombus;whiteSpace=wrap;html=1;fontColor=#000000;fillColor=#ffffc0;strokeColor=#ff0000;" parent="WIyWlLk6GJQsqaUBKTNV-1" vertex="1">
          <mxGeometry x="374" y="590" width="80" height="40" as="geometry" />
        </mxCell>
        <mxCell id="7VZOe4bMkCDw_l6M71J5-24" value="no" style="edgeStyle=orthogonalEdgeStyle;html=1;align=left;verticalAlign=bottom;endArrow=open;endSize=8;strokeColor=#ff0000;rounded=0;" parent="WIyWlLk6GJQsqaUBKTNV-1" edge="1">
          <mxGeometry x="-1" relative="1" as="geometry">
            <mxPoint x="590" y="650" as="targetPoint" />
            <mxPoint x="453.9622641509436" y="609.5411320754716" as="sourcePoint" />
            <Array as="points">
              <mxPoint x="590" y="609" />
              <mxPoint x="590" y="650" />
            </Array>
          </mxGeometry>
        </mxCell>
        <mxCell id="7VZOe4bMkCDw_l6M71J5-25" value="yes" style="edgeStyle=orthogonalEdgeStyle;html=1;align=left;verticalAlign=top;endArrow=open;endSize=8;strokeColor=#ff0000;rounded=0;" parent="WIyWlLk6GJQsqaUBKTNV-1" source="7VZOe4bMkCDw_l6M71J5-23" edge="1">
          <mxGeometry x="-1" relative="1" as="geometry">
            <mxPoint x="414" y="690" as="targetPoint" />
          </mxGeometry>
        </mxCell>
        <mxCell id="7VZOe4bMkCDw_l6M71J5-27" value="Enter Valid Details" style="rounded=1;whiteSpace=wrap;html=1;arcSize=40;fontColor=#000000;fillColor=#ffffc0;strokeColor=#ff0000;" parent="WIyWlLk6GJQsqaUBKTNV-1" vertex="1">
          <mxGeometry x="540" y="650" width="120" height="40" as="geometry" />
        </mxCell>
        <mxCell id="7VZOe4bMkCDw_l6M71J5-28" value="" style="edgeStyle=orthogonalEdgeStyle;html=1;verticalAlign=bottom;endArrow=open;endSize=8;strokeColor=#ff0000;rounded=0;" parent="WIyWlLk6GJQsqaUBKTNV-1" source="7VZOe4bMkCDw_l6M71J5-27" edge="1">
          <mxGeometry relative="1" as="geometry">
            <mxPoint x="590" y="730" as="targetPoint" />
            <Array as="points">
              <mxPoint x="590" y="700" />
              <mxPoint x="590" y="700" />
            </Array>
          </mxGeometry>
        </mxCell>
        <mxCell id="7VZOe4bMkCDw_l6M71J5-31" value="Go to website" style="rounded=1;whiteSpace=wrap;html=1;arcSize=40;fontColor=#000000;fillColor=#ffffc0;strokeColor=#ff0000;" parent="WIyWlLk6GJQsqaUBKTNV-1" vertex="1">
          <mxGeometry x="354" y="690" width="120" height="40" as="geometry" />
        </mxCell>
        <mxCell id="7VZOe4bMkCDw_l6M71J5-32" value="" style="edgeStyle=orthogonalEdgeStyle;html=1;verticalAlign=bottom;endArrow=open;endSize=8;strokeColor=#ff0000;rounded=0;exitX=0.5;exitY=1;exitDx=0;exitDy=0;" parent="WIyWlLk6GJQsqaUBKTNV-1" source="7VZOe4bMkCDw_l6M71J5-31" edge="1">
          <mxGeometry relative="1" as="geometry">
            <mxPoint x="410" y="770" as="targetPoint" />
            <Array as="points">
              <mxPoint x="410" y="730" />
            </Array>
          </mxGeometry>
        </mxCell>
        <mxCell id="7VZOe4bMkCDw_l6M71J5-33" value="" style="ellipse;html=1;shape=endState;fillColor=#000000;strokeColor=#ff0000;" parent="WIyWlLk6GJQsqaUBKTNV-1" vertex="1">
          <mxGeometry x="580" y="730" width="30" height="30" as="geometry" />
        </mxCell>
        <mxCell id="7VZOe4bMkCDw_l6M71J5-34" value="" style="shape=line;html=1;strokeWidth=6;strokeColor=#ff0000;" parent="WIyWlLk6GJQsqaUBKTNV-1" vertex="1">
          <mxGeometry x="310" y="770" width="200" height="10" as="geometry" />
        </mxCell>
        <mxCell id="7VZOe4bMkCDw_l6M71J5-35" value="" style="edgeStyle=orthogonalEdgeStyle;html=1;verticalAlign=bottom;endArrow=open;endSize=8;strokeColor=#ff0000;rounded=0;" parent="WIyWlLk6GJQsqaUBKTNV-1" edge="1">
          <mxGeometry relative="1" as="geometry">
            <mxPoint x="340" y="850" as="targetPoint" />
            <mxPoint x="340" y="780" as="sourcePoint" />
          </mxGeometry>
        </mxCell>
        <mxCell id="7VZOe4bMkCDw_l6M71J5-36" value="" style="edgeStyle=orthogonalEdgeStyle;html=1;verticalAlign=bottom;endArrow=open;endSize=8;strokeColor=#ff0000;rounded=0;" parent="WIyWlLk6GJQsqaUBKTNV-1" edge="1">
          <mxGeometry relative="1" as="geometry">
            <mxPoint x="490" y="850" as="targetPoint" />
            <mxPoint x="490" y="780" as="sourcePoint" />
            <Array as="points">
              <mxPoint x="490" y="800" />
              <mxPoint x="490" y="800" />
            </Array>
          </mxGeometry>
        </mxCell>
        <mxCell id="7VZOe4bMkCDw_l6M71J5-37" value="Book a taxi" style="rounded=1;whiteSpace=wrap;html=1;arcSize=40;fontColor=#000000;fillColor=#ffffc0;strokeColor=#ff0000;" parent="WIyWlLk6GJQsqaUBKTNV-1" vertex="1">
          <mxGeometry x="279" y="850" width="120" height="40" as="geometry" />
        </mxCell>
        <mxCell id="7VZOe4bMkCDw_l6M71J5-38" value="" style="edgeStyle=orthogonalEdgeStyle;html=1;verticalAlign=bottom;endArrow=open;endSize=8;strokeColor=#ff0000;rounded=0;" parent="WIyWlLk6GJQsqaUBKTNV-1" source="7VZOe4bMkCDw_l6M71J5-37" edge="1">
          <mxGeometry relative="1" as="geometry">
            <mxPoint x="339" y="960" as="targetPoint" />
          </mxGeometry>
        </mxCell>
        <mxCell id="7VZOe4bMkCDw_l6M71J5-39" value="Visit" style="rounded=1;whiteSpace=wrap;html=1;arcSize=40;fontColor=#000000;fillColor=#ffffc0;strokeColor=#ff0000;" parent="WIyWlLk6GJQsqaUBKTNV-1" vertex="1">
          <mxGeometry x="430" y="850" width="120" height="40" as="geometry" />
        </mxCell>
        <mxCell id="7VZOe4bMkCDw_l6M71J5-40" value="" style="edgeStyle=orthogonalEdgeStyle;html=1;verticalAlign=bottom;endArrow=open;endSize=8;strokeColor=#ff0000;rounded=0;" parent="WIyWlLk6GJQsqaUBKTNV-1" source="7VZOe4bMkCDw_l6M71J5-39" edge="1">
          <mxGeometry relative="1" as="geometry">
            <mxPoint x="490" y="960" as="targetPoint" />
            <Array as="points">
              <mxPoint x="490" y="950" />
            </Array>
          </mxGeometry>
        </mxCell>
        <mxCell id="7VZOe4bMkCDw_l6M71J5-43" value="" style="shape=line;html=1;strokeWidth=6;strokeColor=#ff0000;" parent="WIyWlLk6GJQsqaUBKTNV-1" vertex="1">
          <mxGeometry x="314" y="960" width="200" height="10" as="geometry" />
        </mxCell>
        <mxCell id="7VZOe4bMkCDw_l6M71J5-44" value="" style="edgeStyle=orthogonalEdgeStyle;html=1;verticalAlign=bottom;endArrow=open;endSize=8;strokeColor=#ff0000;rounded=0;" parent="WIyWlLk6GJQsqaUBKTNV-1" source="7VZOe4bMkCDw_l6M71J5-43" edge="1">
          <mxGeometry relative="1" as="geometry">
            <mxPoint x="414" y="1040" as="targetPoint" />
          </mxGeometry>
        </mxCell>
        <mxCell id="7VZOe4bMkCDw_l6M71J5-45" value="" style="ellipse;html=1;shape=endState;fillColor=#000000;strokeColor=#ff0000;" parent="WIyWlLk6GJQsqaUBKTNV-1" vertex="1">
          <mxGeometry x="399" y="1040" width="30" height="30" as="geometry" />
        </mxCell>
      </root>
    </mxGraphModel>
  </diagram>
</mxfile>
